#N canvas 68 200 939 874 10;
#X obj 48 687 outlet~;
#X obj 321 698 outlet~;
#X obj 68 547 tabplay~;
#N canvas 145 88 961 632 panner 0;
#X obj 8 68 inlet~;
#X obj 7 417 outlet~;
#X obj 71 418 outlet~;
#X obj 30 330 - 1;
#X obj 30 359 * -1;
#X obj 71 389 *~ 1;
#X obj 7 389 *~ 1;
#X obj 30 238 / 100;
#X obj 30 216 random_range 0 100;
#X obj 151 184 + 50;
#X obj 47 188 - 50;
#X obj 90 189 * -1;
#X obj 47 163 * 0.5;
#X obj 30 297 line;
#X obj 30 273 pack 0 0;
#X obj 57 68 inlet;
#X obj 46 129 r \$0-sample_pan_sprd;
#X connect 0 0 6 0;
#X connect 0 0 5 0;
#X connect 3 0 4 0;
#X connect 4 0 6 1;
#X connect 5 0 2 0;
#X connect 6 0 1 0;
#X connect 7 0 14 0;
#X connect 8 0 7 0;
#X connect 9 0 8 2;
#X connect 10 0 11 0;
#X connect 11 0 8 1;
#X connect 12 0 10 0;
#X connect 12 0 9 0;
#X connect 13 0 5 1;
#X connect 13 0 3 0;
#X connect 14 0 13 0;
#X connect 15 0 8 0;
#X connect 16 0 12 0;
#X restore 69 650 pd panner;
#N canvas 1 88 450 300 grain-level_event 0;
#X obj 29 23 inlet~;
#X obj 30 264 outlet~;
#X text 249 187 here is a space to experiment with microscopic \, grain-level
events \, such as random filtering \, constant-Q filtering \, windowed
envelopes \, and other audio trickery. see Curtis Roads: "Microsound"
for inspiration!;
#X text 137 23 bang at beginning of grain event;
#X obj 90 23 inlet;
#X obj 150 53 inlet;
#X text 196 53 total grain length;
#X obj 62 165 *~ 0.2;
#X connect 0 0 7 0;
#X connect 7 0 1 0;
#X restore 68 627 pd grain-level_event;
#N canvas 576 93 576 557 envelope_generator 0;
#X obj 166 2 inlet~;
#X obj 167 330 outlet~;
#X obj 215 2 inlet;
#X obj 245 330 outlet;
#X obj 245 60 unpack 0 0 0 0;
#X obj 215 277 line~;
#X text 277 266 ramp generator;
#X obj 215 243 pack 0 0;
#X obj 215 25 t b l;
#X obj 215 124 f;
#X text 285 248 gain + attack;
#X obj 292 122 del 1;
#X text 345 120 delay attack;
#X obj 292 150 del 1;
#X text 345 149 delay sustain;
#X obj 292 205 pack 0 0;
#X text 345 178 gain0 + release;
#X obj 292 178 f 0;
#X obj 167 300 *~;
#X connect 0 0 18 0;
#X connect 2 0 8 0;
#X connect 4 0 3 0;
#X connect 4 1 7 1;
#X connect 4 1 11 1;
#X connect 4 1 15 1;
#X connect 4 2 13 1;
#X connect 4 3 9 1;
#X connect 5 0 18 1;
#X connect 7 0 5 0;
#X connect 8 0 9 0;
#X connect 8 0 11 0;
#X connect 8 1 4 0;
#X connect 9 0 7 0;
#X connect 11 0 13 0;
#X connect 13 0 17 0;
#X connect 15 0 5 0;
#X connect 17 0 15 0;
#X connect 18 0 1 0;
#X restore 68 602 pd envelope_generator;
#N canvas 1 103 450 300 asynchfilter 0;
#X obj 66 17 inlet~;
#X obj 66 136 outlet~;
#X obj 117 17 inlet;
#X obj 84 83 line~;
#X obj 67 111 *~;
#X obj 85 61 pack 0 5;
#X connect 0 0 4 0;
#X connect 2 0 5 0;
#X connect 3 0 4 1;
#X connect 4 0 1 0;
#X connect 5 0 3 0;
#X restore 69 576 pd asynchfilter;
#X text 202 628 <-----add your own grain-level events here!;
#X text 521 11 this is one grain voice;
#X obj 529 74 u_dispatch \$0 sample_name;
#X obj 529 53 inlet;
#X obj 529 96 u_dispatch \$0 sample_length;
#X obj 49 29 inlet~;
#X obj 320 32 inlet~;
#X text 85 28 <- signal passthrough ->;
#N canvas 53 582 450 300 sample_selector 0;
#X obj 82 188 outlet;
#X obj 262 185 outlet;
#X obj 82 61 r \$0-sample_name;
#X obj 262 63 r \$0-sample_length;
#X msg 82 121 set \$1;
#X obj 141 162 spigot 0;
#X obj 169 137 r \$0-debug;
#X obj 141 186 print selector_name;
#X obj 82 83 symbol;
#X connect 2 0 8 0;
#X connect 3 0 1 0;
#X connect 4 0 0 0;
#X connect 4 0 5 0;
#X connect 5 0 7 0;
#X connect 6 0 5 1;
#X connect 8 0 4 0;
#X restore 68 65 pd sample_selector;
#X obj 529 118 u_dispatch \$0 sample_start_min;
#X obj 529 140 u_dispatch \$0 sample_start_sprd;
#N canvas 1 103 450 300 sample_start 0;
#X obj 67 167 outlet;
#X obj 153 168 outlet;
#X obj 153 91 +;
#X obj 157 65 / 100;
#X obj 191 92 *;
#X obj 67 91 +;
#X obj 100 90 * -1;
#X obj 67 140 line 20;
#X obj 153 140 line 20;
#X obj 153 115 pack 0 20;
#X obj 67 116 pack 0 20;
#X obj 67 20 r \$0-sample_start_min;
#X obj 86 40 r \$0-sample_start_sprd;
#X connect 2 0 9 0;
#X connect 3 0 4 1;
#X connect 4 0 2 0;
#X connect 4 0 6 0;
#X connect 5 0 10 0;
#X connect 6 0 5 1;
#X connect 7 0 0 0;
#X connect 8 0 1 0;
#X connect 9 0 8 0;
#X connect 10 0 7 0;
#X connect 11 0 5 0;
#X connect 11 0 2 1;
#X connect 11 0 4 0;
#X connect 12 0 3 0;
#X restore 223 137 pd sample_start;
#X obj 174 164 u_randomrange 0 1;
#X text 524 22 Args: int <voice number>;
#X obj 529 162 u_dispatch \$0 sample_voices;
#X obj 529 184 u_dispatch \$0 sample_async;
#N canvas 549 139 450 300 triggers 0;
#X obj 77 213 outlet;
#X obj 131 214 outlet;
#X obj 77 119 metro 800;
#X obj 131 142 random 100;
#X obj 77 68 >= \$1;
#X obj 131 163 >=;
#X obj 77 89 change -1;
#X obj 290 51 inlet;
#X obj 147 50 r \$0-sample_async;
#X obj 77 29 r \$0-sample_voices;
#X connect 2 0 3 0;
#X connect 2 0 0 0;
#X connect 3 0 5 0;
#X connect 4 0 6 0;
#X connect 5 0 1 0;
#X connect 6 0 2 0;
#X connect 7 0 2 1;
#X connect 8 0 5 1;
#X connect 9 0 4 0;
#X restore 101 98 pd triggers;
#X obj 101 120 t b b b b;
#X obj 174 186 * 0.001;
#X obj 174 208 *;
#X obj 174 520 pack 0 0 0 0;
#X obj 262 449 * 2;
#X obj 262 471 +;
#N canvas 1 93 450 300 zample_gain 0;
#X obj 98 168 outlet;
#X obj 183 168 outlet;
#X obj 184 94 +;
#X obj 188 68 / 100;
#X obj 222 95 *;
#X obj 98 94 +;
#X obj 131 93 * -1;
#X obj 184 118 pack 0 20;
#X obj 98 119 pack 0 20;
#X obj 98 143 line;
#X obj 183 140 line;
#X obj 98 18 r \$0-sample_gain_min;
#X obj 112 46 r \$0-sample_gain_sprd;
#X connect 2 0 7 0;
#X connect 3 0 4 1;
#X connect 4 0 2 0;
#X connect 4 0 6 0;
#X connect 5 0 8 0;
#X connect 6 0 5 1;
#X connect 7 0 10 0;
#X connect 8 0 9 0;
#X connect 9 0 0 0;
#X connect 10 0 1 0;
#X connect 11 0 5 0;
#X connect 11 0 2 1;
#X connect 11 0 4 0;
#X connect 12 0 3 0;
#X restore 270 274 pd zample_gain;
#N canvas 1 83 450 300 zample_envelope 0;
#X obj 146 44 +;
#X obj 150 18 / 100;
#X obj 184 45 *;
#X obj 60 44 +;
#X obj 93 43 * -1;
#X obj 146 68 pack 0 20;
#X obj 60 69 pack 0 20;
#X obj 60 128 outlet;
#X obj 146 129 outlet;
#X obj 60 90 line;
#X obj 146 90 line;
#X obj 74 -6 r \$0-sample_envelope_sprd;
#X obj 60 -30 r \$0-sample_envelope_min;
#X connect 0 0 5 0;
#X connect 1 0 2 1;
#X connect 2 0 0 0;
#X connect 2 0 4 0;
#X connect 3 0 6 0;
#X connect 4 0 3 1;
#X connect 5 0 10 0;
#X connect 6 0 9 0;
#X connect 9 0 7 0;
#X connect 10 0 8 0;
#X connect 11 0 1 0;
#X connect 12 0 3 0;
#X connect 12 0 0 1;
#X connect 12 0 2 0;
#X restore 264 221 pd zample_envelope;
#N canvas 1 93 450 300 sustain 0;
#X obj 34 137 outlet;
#X obj 120 137 outlet;
#X obj 120 60 +;
#X obj 124 34 / 100;
#X obj 158 61 *;
#X obj 34 60 +;
#X obj 67 59 * -1;
#X obj 120 85 pack 0 20;
#X obj 34 85 pack 0 20;
#X obj 34 110 line;
#X obj 120 109 line;
#X obj 34 -10 r \$0-sample_sustain_min;
#X obj 51 13 r \$0-sample_sustain_sprd;
#X connect 2 0 7 0;
#X connect 3 0 4 1;
#X connect 4 0 2 0;
#X connect 4 0 6 0;
#X connect 5 0 8 0;
#X connect 6 0 5 1;
#X connect 7 0 10 0;
#X connect 8 0 9 0;
#X connect 9 0 0 0;
#X connect 10 0 1 0;
#X connect 11 0 5 0;
#X connect 11 0 2 1;
#X connect 11 0 4 0;
#X connect 12 0 3 0;
#X restore 272 329 pd sustain;
#X obj 529 206 u_dispatch \$0 sample_envelope_min;
#X obj 529 228 u_dispatch \$0 sample_envelope_sprd;
#X obj 529 250 u_dispatch \$0 sample_gain_min;
#X obj 528 272 u_dispatch sample_gain_sprd;
#X obj 528 295 u_dispatch \$0 sample_sustain_min;
#X obj 528 316 u_dispatch \$0 sample_sustain_sprd;
#X obj 566 686 outlet;
#X text 626 679 forward the messages \, too;
#X obj 527 340 u_dispatch \$0 debug;
#X obj 527 362 u_dispatch \$0 sample_pan_sprd;
#X obj 200 244 u_randomrange 10 100;
#X obj 243 301 u_randomrange 1 60;
#X obj 229 355 u_randomrange 1 10;
#X obj 527 384 u_dispatch \$0 sample_gain_min;
#X obj 527 406 u_dispatch \$0 sample_gain_sprd;
#X connect 2 0 6 0;
#X connect 3 0 0 0;
#X connect 3 1 1 0;
#X connect 4 0 3 0;
#X connect 5 0 4 0;
#X connect 5 1 2 0;
#X connect 6 0 5 0;
#X connect 9 0 11 0;
#X connect 10 0 9 0;
#X connect 10 0 39 0;
#X connect 11 0 16 0;
#X connect 12 0 0 0;
#X connect 13 0 1 0;
#X connect 15 0 2 0;
#X connect 15 1 26 1;
#X connect 16 0 17 0;
#X connect 17 0 21 0;
#X connect 18 0 19 1;
#X connect 18 1 19 2;
#X connect 19 0 25 0;
#X connect 21 0 22 0;
#X connect 22 0 33 0;
#X connect 23 0 24 0;
#X connect 23 1 6 1;
#X connect 24 0 45 0;
#X connect 24 0 4 1;
#X connect 24 0 3 1;
#X connect 24 1 19 0;
#X connect 24 2 43 0;
#X connect 24 3 44 0;
#X connect 25 0 26 0;
#X connect 26 0 27 0;
#X connect 27 0 5 1;
#X connect 28 0 29 0;
#X connect 29 0 4 2;
#X connect 29 0 23 0;
#X connect 30 0 44 1;
#X connect 30 1 44 2;
#X connect 31 0 43 1;
#X connect 31 1 43 2;
#X connect 32 0 45 1;
#X connect 32 1 45 2;
#X connect 33 0 34 0;
#X connect 34 0 35 0;
#X connect 35 0 36 0;
#X connect 36 0 37 0;
#X connect 37 0 38 0;
#X connect 38 0 41 0;
#X connect 41 0 42 0;
#X connect 42 0 46 0;
#X connect 43 0 28 0;
#X connect 43 0 27 1;
#X connect 44 0 27 3;
#X connect 45 0 29 1;
#X connect 45 0 27 2;
#X connect 46 0 47 0;
