#N canvas 68 298 1221 726 10;
#X declare -path ./;
#X text 444 30 messages:;
#X text 449 52 sample_name: the name of the array that holds sample
;
#X text 449 62 sample_length: the length of the sample inms.;
#X text 449 72 sample_start_min: minimum onset position;
#X text 449 82 sample_start_sprd: random variation from the minimum
onseet position;
#X text 449 105 sample_voices: voice inclusion;
#X text 448 115 sampole_async: factor of randomness whether sample
is output or not;
#X obj 377 210 unpack s f f f;
#X obj 46 613 soundoutput;
#X obj 686 22 declare -path ./;
#X obj 303 207 prepend set;
#X msg 303 229 2272-sample1 23498.2 1.03627e+06 44100;
#X msg 302 164 sr 44100 \, info;
#X obj 303 185 u_samplebank \$0-sample1 ./guit-samp.wav;
#X obj 303 250 list;
#X floatatom 321 101 5 0 0 0 - - -;
#X obj 321 122 s jitter;
#X msg 300 287 sample_name \$1 \, sample_length \$2;
#X obj 370 466 s_particlechamber;
#X obj 602 143 g_particlechamber_ctl;
#X obj 56 479 s_particlechamber;
#X obj 810 138 g_particlechamber_ctl;
#X obj 122 212 unpack s f f f;
#X obj 48 209 prepend set;
#X msg 48 231 2272-sample1 46996.4 1.03627e+06 22050;
#X msg 47 166 sr 44100 \, info;
#X obj 48 187 u_samplebank \$0-sample1 ./guit-samp.wav;
#X obj 48 252 list;
#X msg 45 289 sample_name \$1 \, sample_length \$2;
#X connect 10 0 11 0;
#X connect 11 0 14 0;
#X connect 12 0 13 0;
#X connect 13 0 7 0;
#X connect 13 0 10 0;
#X connect 14 0 17 0;
#X connect 15 0 16 0;
#X connect 17 0 18 1;
#X connect 18 0 8 0;
#X connect 18 1 8 1;
#X connect 19 0 18 1;
#X connect 20 0 8 0;
#X connect 20 1 8 1;
#X connect 21 0 20 1;
#X connect 23 0 24 0;
#X connect 24 0 27 0;
#X connect 25 0 26 0;
#X connect 26 0 22 0;
#X connect 26 0 23 0;
#X connect 27 0 28 0;
#X connect 28 0 20 1;
