#N canvas 992 636 608 504 10;
#X obj 117 54 inlet~;
#X obj 117 223 delwrite~ \$0-del 10;
#X obj 389 57 inlet;
#X obj 389 79 u_dispatch \$0 freq;
#X obj 389 101 u_dispatch \$0 fb;
#X obj 180 55 r \$0-freq;
#X msg 180 77 1000 \$1;
#X obj 180 99 /;
#X obj 180 121 sig~;
#X obj 180 143 vd~ \$0-del;
#X obj 180 165 *~ 0.95;
#X obj 181 199 outlet~;
#X obj 265 140 r \$0-fb;
#X obj 392 207 block~ 16;
#X connect 0 0 1 0;
#X connect 2 0 3 0;
#X connect 3 0 4 0;
#X connect 5 0 6 0;
#X connect 6 0 7 0;
#X connect 7 0 8 0;
#X connect 8 0 9 0;
#X connect 9 0 10 0;
#X connect 10 0 11 0;
#X connect 10 0 1 0;
#X connect 12 0 10 1;
