#N canvas 1 83 1077 718 10;
#X obj 102 103 g_hsl sample_voices 0 32;
#X obj 101 133 g_hsl sample_envelope_min 2 200;
#X obj 101 163 g_hsl sample_async 99 0;
#X obj 101 192 g_hsl sample_sustain_min 1 5000;
#X obj 101 222 g_hsl sample_gain_min 0 100;
#X obj 101 250 g_hsl sample_gain_sprd 0 100;
#X obj 101 280 g_hsl sample_pan_sprd 0 100;
#X obj 101 309 g_hsl readspread 0 10000;
#X obj 102 335 g_hsl jitter 0 500;
#X obj 101 363 g_hsl x_pos 0 1000;
#X obj 101 392 g_hsl y_pos 0 10000;
#X obj 102 420 g_hradio interpolation 3;
#X obj 71 493 outlet;
#X obj 69 43 inlet;
#X connect 0 0 12 0;
#X connect 1 0 12 0;
#X connect 2 0 12 0;
#X connect 3 0 12 0;
#X connect 4 0 12 0;
#X connect 5 0 12 0;
#X connect 6 0 12 0;
#X connect 7 0 12 0;
#X connect 8 0 12 0;
#X connect 9 0 12 0;
#X connect 10 0 12 0;
#X connect 11 0 12 0;
#X connect 13 0 0 0;
#X connect 13 0 1 0;
#X connect 13 0 2 0;
#X connect 13 0 3 0;
#X connect 13 0 4 0;
#X connect 13 0 5 0;
#X connect 13 0 6 0;
#X connect 13 0 7 0;
#X connect 13 0 8 0;
#X connect 13 0 9 0;
#X connect 13 0 10 0;
#X connect 13 0 11 0;
#X coords 0 -1 1 1 165 350 1 100 100;
