#N canvas 724 444 1129 614 10;
#N canvas 1 93 621 852 guts 0;
#X obj 71 93 dh_grain 1;
#X obj 73 204 dh_grain 6;
#X obj 71 138 dh_grain 3;
#X obj 72 161 dh_grain 4;
#X obj 72 183 dh_grain 5;
#X obj 72 116 dh_grain 2;
#X obj 54 26 inlet~;
#X obj 212 29 inlet;
#X text 225 53 control;
#X obj 72 226 dh_grain 7;
#X obj 73 249 dh_grain 8;
#X obj 72 271 dh_grain 9;
#X obj 73 294 dh_grain 10;
#X obj 73 316 dh_grain 11;
#X obj 74 337 dh_grain 12;
#X obj 73 357 dh_grain 13;
#X obj 74 380 dh_grain 14;
#X obj 73 402 dh_grain 15;
#X obj 74 426 dh_grain 16;
#X obj 173 91 dh_grain 17;
#X obj 174 114 dh_grain 18;
#X obj 173 136 dh_grain 19;
#X obj 174 159 dh_grain 20;
#X obj 174 181 dh_grain 21;
#X obj 175 202 dh_grain 22;
#X obj 174 224 dh_grain 23;
#X obj 176 247 dh_grain 24;
#X obj 174 269 dh_grain 25;
#X obj 175 294 dh_grain 26;
#X obj 175 314 dh_grain 27;
#X obj 176 334 dh_grain 28;
#X obj 175 355 dh_grain 29;
#X obj 176 378 dh_grain 30;
#X obj 175 400 dh_grain 31;
#X obj 176 424 dh_grain 32;
#X obj 109 485 outlet~;
#X obj 219 489 outlet~;
#X connect 0 0 5 0;
#X connect 0 1 5 1;
#X connect 0 2 5 2;
#X connect 1 0 9 0;
#X connect 1 1 9 1;
#X connect 1 2 9 2;
#X connect 2 0 3 0;
#X connect 2 1 3 1;
#X connect 2 2 3 2;
#X connect 3 0 4 0;
#X connect 3 1 4 1;
#X connect 3 2 4 2;
#X connect 4 0 1 0;
#X connect 4 1 1 1;
#X connect 4 2 1 2;
#X connect 5 0 2 0;
#X connect 5 1 2 1;
#X connect 5 2 2 2;
#X connect 7 0 0 2;
#X connect 7 0 19 2;
#X connect 9 0 10 0;
#X connect 9 1 10 1;
#X connect 9 2 10 2;
#X connect 10 0 11 0;
#X connect 10 1 11 1;
#X connect 10 2 11 2;
#X connect 11 0 12 0;
#X connect 11 1 12 1;
#X connect 11 2 12 2;
#X connect 12 0 13 0;
#X connect 12 1 13 1;
#X connect 12 2 13 2;
#X connect 13 0 14 0;
#X connect 13 1 14 1;
#X connect 13 2 14 2;
#X connect 14 0 15 0;
#X connect 14 1 15 1;
#X connect 14 2 15 2;
#X connect 15 0 16 0;
#X connect 15 1 16 1;
#X connect 15 2 16 2;
#X connect 16 0 17 0;
#X connect 16 1 17 1;
#X connect 16 2 17 2;
#X connect 17 0 18 0;
#X connect 17 1 18 1;
#X connect 17 2 18 2;
#X connect 18 0 35 0;
#X connect 18 1 36 0;
#X connect 19 0 20 0;
#X connect 19 1 20 1;
#X connect 19 2 20 2;
#X connect 20 0 21 0;
#X connect 20 1 21 1;
#X connect 20 2 21 2;
#X connect 21 0 22 0;
#X connect 21 1 22 1;
#X connect 21 2 22 2;
#X connect 22 0 23 0;
#X connect 22 1 23 1;
#X connect 22 2 23 2;
#X connect 23 0 24 0;
#X connect 23 1 24 1;
#X connect 23 2 24 2;
#X connect 24 0 25 0;
#X connect 24 1 25 1;
#X connect 24 2 25 2;
#X connect 25 0 26 0;
#X connect 25 1 26 1;
#X connect 25 2 26 2;
#X connect 26 0 27 0;
#X connect 26 1 27 1;
#X connect 26 2 27 2;
#X connect 27 0 28 0;
#X connect 27 1 28 1;
#X connect 27 2 28 2;
#X connect 28 0 29 0;
#X connect 28 1 29 1;
#X connect 28 2 29 2;
#X connect 29 0 30 0;
#X connect 29 1 30 1;
#X connect 29 2 30 2;
#X connect 30 0 31 0;
#X connect 30 1 31 1;
#X connect 30 2 31 2;
#X connect 31 0 32 0;
#X connect 31 1 32 1;
#X connect 31 2 32 2;
#X connect 32 0 33 0;
#X connect 32 1 33 1;
#X connect 32 2 33 2;
#X connect 33 0 34 0;
#X connect 33 1 34 1;
#X connect 33 2 34 2;
#X connect 34 0 35 0;
#X connect 34 1 36 0;
#X restore 141 277 pd guts;
#X obj 137 324 outlet~;
#X obj 187 324 outlet~;
#N canvas 40 191 560 429 scanner 1;
#X obj 136 47 / 100;
#X obj 322 209 * 2;
#X obj -1 171 random_range 0 0;
#X obj 52 104 * -1;
#X obj -1 216 line;
#X obj -1 265 +;
#X obj 52 74 / 10;
#X obj -1 138 metro 100;
#X obj -1 194 pack 0 5;
#X obj 322 302 f;
#X obj 362 302 f;
#X obj 362 271 t b f;
#X obj 322 271 t b f;
#X obj 322 324 +;
#X obj 322 346 s ave_g_length;
#X obj -1 295 prepend sample_start_min;
#X obj 136 110 prepend sample_start_sprd;
#X obj 216 334 outlet;
#X obj 359 39 inlet;
#X obj 359 61 u_dispatch \$0 sample_envelope_min;
#X obj 359 83 u_dispatch \$0 sample_sustain_min;
#X obj 322 170 r \$0-sample_envelope_min;
#X obj 362 208 r \$0-sample_sustain_min;
#X obj 15 19 r \$0-readpositionout;
#X obj 137 20 r \$0-readspread;
#X obj 359 104 u_dispatch \$0 readpositionout;
#X obj 359 126 u_dispatch \$0 readspread;
#X obj 52 47 r \$0-jitter;
#X obj 359 146 u_dispatch \$0 jitter;
#X connect 0 0 16 0;
#X connect 1 0 12 0;
#X connect 2 0 8 0;
#X connect 3 0 2 1;
#X connect 4 0 5 0;
#X connect 5 0 15 0;
#X connect 6 0 3 0;
#X connect 6 0 2 2;
#X connect 7 0 2 0;
#X connect 8 0 4 0;
#X connect 9 0 13 0;
#X connect 10 0 13 1;
#X connect 11 0 10 0;
#X connect 11 0 9 0;
#X connect 11 1 10 1;
#X connect 12 0 10 0;
#X connect 12 0 9 0;
#X connect 12 1 9 1;
#X connect 13 0 14 0;
#X connect 15 0 17 0;
#X connect 16 0 17 0;
#X connect 18 0 19 0;
#X connect 19 0 20 0;
#X connect 20 0 25 0;
#X connect 21 0 1 0;
#X connect 22 0 11 0;
#X connect 23 0 5 1;
#X connect 23 0 7 0;
#X connect 24 0 0 0;
#X connect 25 0 26 0;
#X connect 26 0 28 0;
#X connect 27 0 6 0;
#X restore 199 255 pd scanner;
#X obj 199 211 r \$0-prtcls;
#X obj 199 234 r \$0-scanner;
#N canvas 1222 95 692 396 table_locator 0;
#X obj 229 47 select 0;
#X obj 299 47 select 1;
#X obj 363 45 select 2;
#X msg 229 70 1;
#X msg 299 70 10;
#X msg 363 67 100;
#X obj 229 114 line;
#X obj 229 92 pack 0 100;
#X obj -60 223 line;
#X obj 127 154 *;
#X obj -60 203 pack 0 0;
#X obj 127 177 t b f;
#X obj -60 177 f;
#X obj 170 244 s scan_speed;
#X obj -9 275 s tableloc;
#X text -72 -3 x coordinates = read position;
#X text -4 225 range = 0-1000;
#X text 158 -3 y coordinates = scan speed interpolation;
#X text 181 221 range = 0-10000;
#X text 130 306 If you do not have the Grid object \, you can hack
this subpatch to control Particlechamber.;
#X obj -46 333 outlet;
#X obj -60 246 prepend readpositionout;
#X obj 445 41 inlet;
#X obj 445 63 u_dispatch \$0 x_pos;
#X obj 445 85 u_dispatch \$0 y_pos;
#X obj 445 107 u_dispatch \$0 interpolation;
#X obj -44 18 r \$0-x_pos;
#X obj 127 18 r \$0-y_pos;
#X obj 229 18 r \$0-interpolation;
#X connect 0 0 3 0;
#X connect 1 0 4 0;
#X connect 2 0 5 0;
#X connect 3 0 7 0;
#X connect 4 0 7 0;
#X connect 5 0 7 0;
#X connect 6 0 9 1;
#X connect 7 0 6 0;
#X connect 8 0 21 0;
#X connect 9 0 11 0;
#X connect 9 0 13 0;
#X connect 10 0 8 0;
#X connect 11 0 12 0;
#X connect 11 1 10 1;
#X connect 12 0 10 0;
#X connect 21 0 20 0;
#X connect 22 0 23 0;
#X connect 23 0 24 0;
#X connect 24 0 25 0;
#X connect 26 0 12 1;
#X connect 26 0 14 0;
#X connect 27 0 9 0;
#X connect 28 0 0 0;
#X connect 28 0 1 0;
#X connect 28 0 2 0;
#X restore 291 319 pd table_locator;
#X obj 301 417 s \$0-scanner;
#X obj 180 91 inlet;
#X obj 118 99 inlet~;
#X connect 0 0 1 0;
#X connect 0 1 2 0;
#X connect 3 0 0 1;
#X connect 4 0 0 1;
#X connect 5 0 3 0;
#X connect 6 0 7 0;
#X connect 8 0 0 1;
#X connect 8 0 3 0;
#X connect 8 0 6 0;
